<svg width="312" height="120" viewBox="0 0 312 120" fill="none" xmlns="http://www.w3.org/2000/svg">
<path d="M0 97.0863V77.7935L48.5173 1.58416H65.2004V28.2885H55.3267L24.741 76.5488V77.454H93.6865V97.0863H0ZM55.7807 117.454V91.2023L56.2346 82.6591V1.58416H79.2732V117.454H55.7807Z" fill="url(#paint0_linear_1958_18525)"/>
<path d="M155.624 120C145.864 119.962 137.466 117.567 130.429 112.815C123.431 108.062 118.04 101.179 114.257 92.1641C110.512 83.1495 108.658 72.3055 108.696 59.6322C108.696 46.9967 110.568 36.2282 114.313 27.3267C118.096 18.4253 123.487 11.6549 130.486 7.01556C137.522 2.33852 145.902 0 155.624 0C165.346 0 173.707 2.33852 180.706 7.01556C187.742 11.6926 193.152 18.4818 196.935 27.3833C200.718 36.2471 202.59 46.9967 202.552 59.6322C202.552 72.3432 200.661 83.206 196.878 92.2206C193.133 101.235 187.761 108.119 180.762 112.871C173.764 117.624 165.384 120 155.624 120ZM155.624 99.6888C162.282 99.6888 167.597 96.3508 171.57 89.6747C175.542 82.9986 177.509 72.9844 177.471 59.6322C177.471 50.8439 176.563 43.5266 174.747 37.6803C172.969 31.834 170.435 27.4399 167.143 24.4979C163.89 21.5559 160.05 20.0849 155.624 20.0849C149.004 20.0849 143.708 23.3852 139.735 29.9859C135.763 36.5865 133.758 46.4686 133.72 59.6322C133.72 68.5337 134.609 75.9642 136.387 81.9236C138.203 87.8454 140.757 92.2961 144.048 95.2758C147.339 98.2178 151.198 99.6888 155.624 99.6888Z" fill="url(#paint1_linear_1958_18525)"/>
<path d="M218.313 97.0863V77.7935L266.831 1.58416H283.514V28.2885H273.64L243.054 76.5488V77.454H312V97.0863H218.313ZM274.094 117.454V91.2023L274.548 82.6591V1.58416H297.587V117.454H274.094Z" fill="url(#paint2_linear_1958_18525)"/>
<defs>
<linearGradient id="paint0_linear_1958_18525" x1="-2.02627" y1="134.708" x2="108.523" y2="-86.8793" gradientUnits="userSpaceOnUse">
<stop stop-color="#0097FE"/>
<stop offset="1" stop-color="#14358A"/>
</linearGradient>
<linearGradient id="paint1_linear_1958_18525" x1="-2.02627" y1="134.708" x2="108.523" y2="-86.8793" gradientUnits="userSpaceOnUse">
<stop stop-color="#0097FE"/>
<stop offset="1" stop-color="#14358A"/>
</linearGradient>
<linearGradient id="paint2_linear_1958_18525" x1="-2.02627" y1="134.708" x2="108.523" y2="-86.8793" gradientUnits="userSpaceOnUse">
<stop stop-color="#0097FE"/>
<stop offset="1" stop-color="#14358A"/>
</linearGradient>
</defs>
</svg>
