<svg width="32" height="32" viewBox="0 0 32 32" fill="none" xmlns="http://www.w3.org/2000/svg">
<path d="M25.7665 7.7036L24.9351 8.25917L24.9351 8.25918L25.7665 7.7036ZM25.7665 21.6297L24.9351 21.0741L25.7665 21.6297ZM24.2951 23.1011L23.7395 22.2697L24.2951 23.1011ZM18.6654 23.9982L18.661 22.9982C18.1104 23.0006 17.6654 23.4476 17.6654 23.9982H18.6654ZM18.6654 24L19.5598 24.4472C19.6292 24.3083 19.6654 24.1552 19.6654 24H18.6654ZM16.8931 27.5445L17.7876 27.9917L16.8931 27.5445ZM15.1043 27.5445L15.9987 27.0972H15.9987L15.1043 27.5445ZM13.332 24H12.332C12.332 24.1552 12.3682 24.3083 12.4376 24.4472L13.332 24ZM13.332 23.9982H14.332C14.332 23.4476 13.887 23.0006 13.3364 22.9982L13.332 23.9982ZM7.70232 23.1011L7.14675 23.9326H7.14675L7.70232 23.1011ZM6.23086 21.6297L5.39939 22.1853L5.39939 22.1853L6.23086 21.6297ZM6.23086 7.7036L7.06233 8.25918V8.25918L6.23086 7.7036ZM7.70232 6.23214L8.25789 7.06361H8.25789L7.70232 6.23214ZM24.2951 6.23214L23.7395 7.06361L23.7395 7.06361L24.2951 6.23214ZM27.6654 14.6666C27.6654 12.8148 27.6666 11.3507 27.5479 10.1839C27.4275 9.00038 27.1755 8.01233 26.598 7.14803L24.9351 8.25918C25.2564 8.74008 25.4538 9.36093 25.5581 10.3863C25.6642 11.4284 25.6654 12.7732 25.6654 14.6666H27.6654ZM26.598 22.1853C27.1755 21.321 27.4275 20.3329 27.5479 19.1494C27.6666 17.9826 27.6654 16.5184 27.6654 14.6666H25.6654C25.6654 16.5601 25.6642 17.9049 25.5581 18.947C25.4538 19.9724 25.2564 20.5932 24.9351 21.0741L26.598 22.1853ZM24.8506 23.9326C25.5422 23.4705 26.1359 22.8768 26.598 22.1853L24.9351 21.0741C24.6189 21.5473 24.2127 21.9535 23.7395 22.2697L24.8506 23.9326ZM18.6697 24.9982C20.1034 24.9919 21.2797 24.9648 22.2553 24.83C23.247 24.6929 24.0958 24.437 24.8506 23.9326L23.7395 22.2697C23.3193 22.5505 22.7916 22.7368 21.9815 22.8488C21.1552 22.963 20.1042 22.9919 18.661 22.9982L18.6697 24.9982ZM19.6654 24V23.9982H17.6654V24H19.6654ZM17.7876 27.9917L19.5598 24.4472L17.7709 23.5528L15.9987 27.0972L17.7876 27.9917ZM14.2098 27.9917C14.9469 29.4658 17.0505 29.4658 17.7876 27.9917L15.9987 27.0972L14.2098 27.9917ZM12.4376 24.4472L14.2098 27.9917L15.9987 27.0972L14.2265 23.5528L12.4376 24.4472ZM12.332 23.9982V24H14.332V23.9982H12.332ZM7.14675 23.9326C7.90164 24.437 8.75039 24.6929 9.74207 24.83C10.7177 24.9648 11.894 24.9919 13.3277 24.9982L13.3364 22.9982C11.8932 22.9919 10.8422 22.963 10.0159 22.8488C9.20577 22.7368 8.67814 22.5505 8.25789 22.2697L7.14675 23.9326ZM5.39939 22.1853C5.86146 22.8768 6.45522 23.4705 7.14675 23.9326L8.25789 22.2697C7.78474 21.9535 7.37848 21.5473 7.06233 21.0741L5.39939 22.1853ZM4.33203 14.6666C4.33203 16.5184 4.33082 17.9826 4.44952 19.1494C4.56992 20.3329 4.82189 21.321 5.39939 22.1853L7.06233 21.0741C6.741 20.5932 6.54356 19.9724 6.43925 18.947C6.33324 17.9049 6.33203 16.5601 6.33203 14.6666H4.33203ZM5.39939 7.14803C4.82189 8.01233 4.56992 9.00038 4.44952 10.1839C4.33082 11.3507 4.33203 12.8148 4.33203 14.6666H6.33203C6.33203 12.7732 6.33324 11.4284 6.43925 10.3863C6.54356 9.36093 6.741 8.74007 7.06233 8.25918L5.39939 7.14803ZM7.14675 5.40067C6.45522 5.86274 5.86146 6.4565 5.39939 7.14803L7.06233 8.25918C7.37848 7.78602 7.78474 7.37976 8.25789 7.06361L7.14675 5.40067ZM14.6654 4.33331C12.8136 4.33331 11.3494 4.3321 10.1826 4.4508C8.9991 4.5712 8.01105 4.82317 7.14675 5.40067L8.25789 7.06361C8.73879 6.74228 9.35965 6.54484 10.385 6.44053C11.4271 6.33452 12.7719 6.33331 14.6654 6.33331V4.33331ZM17.332 4.33331H14.6654V6.33331H17.332V4.33331ZM24.8506 5.40067C23.9863 4.82317 22.9983 4.5712 21.8148 4.4508C20.648 4.3321 19.1838 4.33331 17.332 4.33331V6.33331C19.2255 6.33331 20.5703 6.33452 21.6124 6.44053C22.6377 6.54484 23.2586 6.74228 23.7395 7.06361L24.8506 5.40067ZM26.598 7.14804C26.1359 6.4565 25.5422 5.86274 24.8506 5.40067L23.7395 7.06361C24.2127 7.37977 24.6189 7.78602 24.9351 8.25917L26.598 7.14804Z" fill="white"/>
<ellipse cx="21.3333" cy="14.6666" rx="1.33333" ry="1.33333" fill="white" stroke="white" stroke-linecap="round"/>
<circle cx="16.0013" cy="14.6666" r="1.33333" fill="white" stroke="white" stroke-linecap="round"/>
<circle cx="10.6654" cy="14.6666" r="1.33333" fill="white" stroke="white" stroke-linecap="round"/>
</svg>
