<svg width="64" height="64" viewBox="0 0 64 64" fill="none" xmlns="http://www.w3.org/2000/svg">
<path d="M32.002 0L4.28906 16V47.9998L32.002 63.9999L59.7149 47.9998V16L32.002 0ZM33.8771 5.41289L54.0897 17.0825L46.5839 21.4159L33.8771 14.0797V5.41289ZM30.1269 5.41301V14.0798L17.4201 21.416L9.91445 17.0827L30.1269 5.41301ZM8.03932 20.3304L15.545 24.6638V39.3363L8.03932 43.6697V20.3304ZM30.1269 58.5872L9.91432 46.9175L17.42 42.584L30.1267 49.9202V58.5872H30.1269ZM19.2952 39.3362V24.6638L32.002 17.3275L44.7088 24.6638V39.3363L32.002 46.6725L19.2952 39.3362ZM33.877 58.5872V49.9204L46.5838 42.5841L54.0894 46.9175L33.877 58.5872ZM55.9647 43.6697L48.459 39.3363V24.6638L55.9647 20.3304V43.6697Z" fill="#03133D"/>
</svg>
