<svg width="382" height="59" viewBox="0 0 382 59" fill="none" xmlns="http://www.w3.org/2000/svg">
<path d="M39.1882 17.5476H29.9677C29.7993 16.3553 29.4555 15.2963 28.9362 14.3705C28.4169 13.4307 27.7503 12.6312 26.9363 11.9719C26.1223 11.3126 25.182 10.8077 24.1154 10.457C23.0629 10.1063 21.9191 9.93101 20.6841 9.93101C18.4526 9.93101 16.5089 10.4851 14.8529 11.5932C13.1968 12.6873 11.9127 14.2863 11.0005 16.3904C10.0883 18.4804 9.63215 21.0192 9.63215 24.0069C9.63215 27.0788 10.0883 29.6598 11.0005 31.7498C11.9267 33.8398 13.2179 35.4178 14.8739 36.4838C16.53 37.5499 18.4456 38.0829 20.6209 38.0829C21.8419 38.0829 22.9717 37.9216 24.0102 37.5989C25.0627 37.2763 25.996 36.8064 26.81 36.1893C27.624 35.558 28.2976 34.7936 28.8309 33.8959C29.3783 32.9981 29.7572 31.9742 29.9677 30.824L39.1882 30.8661C38.9496 32.8438 38.3531 34.7515 37.3988 36.589C36.4585 38.4125 35.1884 40.0466 33.5885 41.4914C32.0027 42.9221 30.108 44.0583 27.9047 44.8999C25.7153 45.7275 23.2383 46.1413 20.4736 46.1413C16.6282 46.1413 13.1898 45.2716 10.1584 43.5323C7.14107 41.793 4.75526 39.2752 3.00099 35.9788C1.26075 32.6825 0.390625 28.6919 0.390625 24.0069C0.390625 19.3079 1.27478 15.3103 3.04309 12.014C4.8114 8.71768 7.21125 6.20688 10.2426 4.48158C13.274 2.74225 16.6843 1.87258 20.4736 1.87258C22.9717 1.87258 25.2873 2.22325 27.4205 2.9246C29.5677 3.62594 31.4694 4.6499 33.1254 5.99647C34.7814 7.32902 36.1287 8.96315 37.1672 10.8989C38.2198 12.8346 38.8935 15.0508 39.1882 17.5476Z" fill="url(#paint0_linear_1959_18492)"/>
<path d="M60.1658 46.1834C56.8958 46.1834 54.0679 45.489 51.6821 44.1004C49.3103 42.6977 47.4789 40.748 46.1877 38.2512C44.8966 35.7404 44.251 32.8298 44.251 29.5195C44.251 26.1811 44.8966 23.2635 46.1877 20.7667C47.4789 18.2559 49.3103 16.3062 51.6821 14.9175C54.0679 13.5149 56.8958 12.8135 60.1658 12.8135C63.4358 12.8135 66.2566 13.5149 68.6284 14.9175C71.0142 16.3062 72.8527 18.2559 74.1439 20.7667C75.435 23.2635 76.0806 26.1811 76.0806 29.5195C76.0806 32.8298 75.435 35.7404 74.1439 38.2512C72.8527 40.748 71.0142 42.6977 68.6284 44.1004C66.2566 45.489 63.4358 46.1834 60.1658 46.1834ZM60.2079 39.2401C61.6955 39.2401 62.9375 38.8193 63.934 37.9777C64.9304 37.122 65.6812 35.9578 66.1865 34.485C66.7057 33.0122 66.9654 31.336 66.9654 29.4564C66.9654 27.5768 66.7057 25.9006 66.1865 24.4277C65.6812 22.9549 64.9304 21.7907 63.934 20.9351C62.9375 20.0794 61.6955 19.6516 60.2079 19.6516C58.7062 19.6516 57.4431 20.0794 56.4187 20.9351C55.4082 21.7907 54.6433 22.9549 54.1241 24.4277C53.6188 25.9006 53.3662 27.5768 53.3662 29.4564C53.3662 31.336 53.6188 33.0122 54.1241 34.485C54.6433 35.9578 55.4082 37.122 56.4187 37.9777C57.4431 38.8193 58.7062 39.2401 60.2079 39.2401Z" fill="url(#paint1_linear_1959_18492)"/>
<path d="M81.9118 45.5522V13.2343H90.4586V18.9362H90.8375C91.5112 17.0426 92.6339 15.5488 94.2057 14.4547C95.7776 13.3606 97.6581 12.8135 99.8475 12.8135C102.065 12.8135 103.952 13.3676 105.51 14.4757C107.068 15.5698 108.107 17.0566 108.626 18.9362H108.963C109.622 17.0847 110.815 15.6049 112.541 14.4967C114.282 13.3746 116.338 12.8135 118.709 12.8135C121.727 12.8135 124.176 13.7744 126.056 15.696C127.951 17.6037 128.898 20.3109 128.898 23.8176V45.5522H119.951V25.585C119.951 23.7895 119.474 22.4429 118.52 21.5452C117.566 20.6475 116.373 20.1987 114.941 20.1987C113.313 20.1987 112.043 20.7176 111.131 21.7556C110.219 22.7796 109.763 24.1332 109.763 25.8164V45.5522H101.068V25.3956C101.068 23.8106 100.612 22.5481 99.7001 21.6083C98.8019 20.6686 97.616 20.1987 96.1425 20.1987C95.146 20.1987 94.2478 20.4511 93.4479 20.9561C92.662 21.447 92.0375 22.1414 91.5743 23.0391C91.1112 23.9228 90.8796 24.9608 90.8796 26.153V45.5522H81.9118Z" fill="url(#paint2_linear_1959_18492)"/>
<path d="M135.982 45.5522V13.2343H144.95V45.5522H135.982ZM140.487 9.06835C139.154 9.06835 138.01 8.62651 137.056 7.74282C136.115 6.8451 135.645 5.77205 135.645 4.52366C135.645 3.28929 136.115 2.23027 137.056 1.34658C138.01 0.44886 139.154 0 140.487 0C141.82 0 142.957 0.44886 143.897 1.34658C144.852 2.23027 145.329 3.28929 145.329 4.52366C145.329 5.77205 144.852 6.8451 143.897 7.74282C142.957 8.62651 141.82 9.06835 140.487 9.06835Z" fill="url(#paint3_linear_1959_18492)"/>
<path d="M161.102 26.8684V45.5522H152.134V13.2343H160.68V18.9362H161.059C161.775 17.0566 162.975 15.5698 164.659 14.4757C166.343 13.3676 168.385 12.8135 170.785 12.8135C173.031 12.8135 174.988 13.3045 176.658 14.2863C178.328 15.2682 179.627 16.6709 180.553 18.4944C181.479 20.3039 181.942 22.464 181.942 24.9748V45.5522H172.974V26.5739C172.988 24.5961 172.483 23.0531 171.459 21.945C170.434 20.8228 169.024 20.2618 167.227 20.2618C166.02 20.2618 164.954 20.5213 164.028 21.0403C163.115 21.5593 162.4 22.3167 161.88 23.3126C161.375 24.2945 161.116 25.4798 161.102 26.8684Z" fill="url(#paint4_linear_1959_18492)"/>
<path d="M203.578 58.3446C200.673 58.3446 198.182 57.9449 196.105 57.1454C194.042 56.3598 192.4 55.2868 191.179 53.9262C189.958 52.5656 189.165 51.0367 188.8 49.3394L197.094 48.2243C197.347 48.8695 197.747 49.4727 198.294 50.0337C198.841 50.5948 199.564 51.0437 200.462 51.3803C201.374 51.731 202.483 51.9063 203.788 51.9063C205.739 51.9063 207.346 51.4294 208.609 50.4756C209.886 49.5358 210.525 47.9578 210.525 45.7415V39.8292H210.146C209.753 40.7269 209.163 41.5756 208.377 42.3751C207.592 43.1746 206.581 43.8269 205.346 44.3318C204.111 44.8368 202.637 45.0893 200.925 45.0893C198.497 45.0893 196.287 44.5282 194.294 43.4061C192.315 42.2699 190.736 40.5376 189.558 38.2091C188.393 35.8666 187.81 32.907 187.81 29.3301C187.81 25.6691 188.407 22.6113 189.6 20.1566C190.793 17.7019 192.378 15.8644 194.357 14.644C196.35 13.4237 198.532 12.8135 200.904 12.8135C202.715 12.8135 204.23 13.1221 205.451 13.7393C206.672 14.3424 207.655 15.0999 208.398 16.0116C209.156 16.9094 209.739 17.793 210.146 18.6627H210.483V13.2343H219.387V45.8678C219.387 48.617 218.714 50.9174 217.366 52.769C216.019 54.6205 214.153 56.0092 211.767 56.935C209.395 57.8747 206.665 58.3446 203.578 58.3446ZM203.767 38.3564C205.213 38.3564 206.434 37.9987 207.43 37.2833C208.441 36.5539 209.212 35.516 209.746 34.1694C210.293 32.8088 210.567 31.1817 210.567 29.288C210.567 27.3944 210.3 25.7533 209.767 24.3646C209.234 22.9619 208.462 21.8749 207.451 21.1034C206.441 20.3319 205.213 19.9462 203.767 19.9462C202.294 19.9462 201.052 20.3459 200.041 21.1455C199.031 21.931 198.266 23.0251 197.747 24.4277C197.227 25.8304 196.968 27.4505 196.968 29.288C196.968 31.1536 197.227 32.7667 197.747 34.1273C198.28 35.4739 199.045 36.5189 200.041 37.2623C201.052 37.9917 202.294 38.3564 203.767 38.3564Z" fill="url(#paint5_linear_1959_18492)"/>
<path d="M263.8 14.8544C263.632 13.1572 262.909 11.8387 261.632 10.8989C260.355 9.95906 258.622 9.48916 256.432 9.48916C254.945 9.48916 253.689 9.69956 252.664 10.1204C251.64 10.5271 250.854 11.0952 250.306 11.8246C249.773 12.554 249.506 13.3816 249.506 14.3074C249.478 15.0789 249.64 15.7521 249.991 16.3272C250.355 16.9023 250.854 17.4003 251.485 17.8211C252.117 18.2279 252.847 18.5856 253.675 18.8942C254.503 19.1887 255.387 19.4412 256.327 19.6516L260.2 20.5774C262.081 20.9982 263.807 21.5593 265.379 22.2606C266.951 22.9619 268.312 23.8246 269.463 24.8485C270.614 25.8725 271.505 27.0788 272.137 28.4675C272.782 29.8561 273.112 31.4482 273.126 33.2436C273.112 35.8807 272.438 38.167 271.105 40.1027C269.786 42.0244 267.877 43.5183 265.379 44.5843C262.895 45.6363 259.899 46.1623 256.39 46.1623C252.91 46.1623 249.878 45.6293 247.296 44.5633C244.728 43.4972 242.721 41.9192 241.275 39.8292C239.844 37.7252 239.093 35.1232 239.023 32.0233H247.843C247.942 33.468 248.356 34.6744 249.085 35.6422C249.829 36.596 250.819 37.3184 252.054 37.8093C253.303 38.2863 254.713 38.5247 256.285 38.5247C257.829 38.5247 259.169 38.3003 260.306 37.8514C261.457 37.4026 262.348 36.7784 262.979 35.9788C263.611 35.1793 263.927 34.2606 263.927 33.2226C263.927 32.2547 263.639 31.4412 263.063 30.7819C262.502 30.1226 261.674 29.5616 260.579 29.0987C259.499 28.6358 258.173 28.215 256.601 27.8363L251.906 26.658C248.271 25.7743 245.401 24.3927 243.296 22.5131C241.191 20.6335 240.146 18.1016 240.16 14.9175C240.146 12.3086 240.84 10.0292 242.244 8.07946C243.661 6.12973 245.605 4.60782 248.075 3.51372C250.545 2.41963 253.352 1.87258 256.495 1.87258C259.695 1.87258 262.488 2.41963 264.874 3.51372C267.274 4.60782 269.14 6.12973 270.474 8.07946C271.807 10.0292 272.494 12.2875 272.537 14.8544H263.8Z" fill="url(#paint6_linear_1959_18492)"/>
<path d="M293.698 46.1834C290.428 46.1834 287.6 45.489 285.215 44.1004C282.843 42.6977 281.011 40.748 279.72 38.2512C278.429 35.7404 277.784 32.8298 277.784 29.5195C277.784 26.1811 278.429 23.2635 279.72 20.7667C281.011 18.2559 282.843 16.3062 285.215 14.9175C287.6 13.5149 290.428 12.8135 293.698 12.8135C296.968 12.8135 299.789 13.5149 302.161 14.9175C304.547 16.3062 306.385 18.2559 307.676 20.7667C308.968 23.2635 309.613 26.1811 309.613 29.5195C309.613 32.8298 308.968 35.7404 307.676 38.2512C306.385 40.748 304.547 42.6977 302.161 44.1004C299.789 45.489 296.968 46.1834 293.698 46.1834ZM293.74 39.2401C295.228 39.2401 296.47 38.8193 297.467 37.9777C298.463 37.122 299.214 35.9578 299.719 34.485C300.238 33.0122 300.498 31.336 300.498 29.4564C300.498 27.5768 300.238 25.9006 299.719 24.4277C299.214 22.9549 298.463 21.7907 297.467 20.9351C296.47 20.0794 295.228 19.6516 293.74 19.6516C292.239 19.6516 290.976 20.0794 289.951 20.9351C288.941 21.7907 288.176 22.9549 287.657 24.4277C287.151 25.9006 286.899 27.5768 286.899 29.4564C286.899 31.336 287.151 33.0122 287.657 34.485C288.176 35.9578 288.941 37.122 289.951 37.9777C290.976 38.8193 292.239 39.2401 293.74 39.2401Z" fill="url(#paint7_linear_1959_18492)"/>
<path d="M330.054 46.1834C326.784 46.1834 323.956 45.489 321.57 44.1004C319.199 42.6977 317.367 40.748 316.076 38.2512C314.785 35.7404 314.139 32.8298 314.139 29.5195C314.139 26.1811 314.785 23.2635 316.076 20.7667C317.367 18.2559 319.199 16.3062 321.57 14.9175C323.956 13.5149 326.784 12.8135 330.054 12.8135C333.324 12.8135 336.145 13.5149 338.517 14.9175C340.902 16.3062 342.741 18.2559 344.032 20.7667C345.323 23.2635 345.969 26.1811 345.969 29.5195C345.969 32.8298 345.323 35.7404 344.032 38.2512C342.741 40.748 340.902 42.6977 338.517 44.1004C336.145 45.489 333.324 46.1834 330.054 46.1834ZM330.096 39.2401C331.584 39.2401 332.826 38.8193 333.822 37.9777C334.819 37.122 335.569 35.9578 336.075 34.485C336.594 33.0122 336.854 31.336 336.854 29.4564C336.854 27.5768 336.594 25.9006 336.075 24.4277C335.569 22.9549 334.819 21.7907 333.822 20.9351C332.826 20.0794 331.584 19.6516 330.096 19.6516C328.594 19.6516 327.331 20.0794 326.307 20.9351C325.296 21.7907 324.531 22.9549 324.012 24.4277C323.507 25.9006 323.254 27.5768 323.254 29.4564C323.254 31.336 323.507 33.0122 324.012 34.485C324.531 35.9578 325.296 37.122 326.307 37.9777C327.331 38.8193 328.594 39.2401 330.096 39.2401Z" fill="url(#paint8_linear_1959_18492)"/>
<path d="M360.768 26.8684V45.5522H351.8V13.2343H360.347V18.9362H360.726C361.441 17.0566 362.641 15.5698 364.325 14.4757C366.01 13.3676 368.052 12.8135 370.451 12.8135C372.697 12.8135 374.655 13.3045 376.325 14.2863C377.995 15.2682 379.293 16.6709 380.219 18.4944C381.145 20.3039 381.609 22.464 381.609 24.9748V45.5522H372.641V26.5739C372.655 24.5961 372.15 23.0531 371.125 21.945C370.101 20.8228 368.69 20.2618 366.894 20.2618C365.687 20.2618 364.62 20.5213 363.694 21.0403C362.782 21.5593 362.066 22.3167 361.547 23.3126C361.041 24.2945 360.782 25.4798 360.768 26.8684Z" fill="url(#paint9_linear_1959_18492)"/>
<defs>
<linearGradient id="paint0_linear_1959_18492" x1="-2.08518" y1="65.4956" x2="23.6138" y2="-63.9548" gradientUnits="userSpaceOnUse">
<stop stop-color="#0097FE"/>
<stop offset="1" stop-color="#14358A"/>
</linearGradient>
<linearGradient id="paint1_linear_1959_18492" x1="-2.08518" y1="65.4956" x2="23.6138" y2="-63.9548" gradientUnits="userSpaceOnUse">
<stop stop-color="#0097FE"/>
<stop offset="1" stop-color="#14358A"/>
</linearGradient>
<linearGradient id="paint2_linear_1959_18492" x1="-2.08518" y1="65.4956" x2="23.6138" y2="-63.9548" gradientUnits="userSpaceOnUse">
<stop stop-color="#0097FE"/>
<stop offset="1" stop-color="#14358A"/>
</linearGradient>
<linearGradient id="paint3_linear_1959_18492" x1="-2.08518" y1="65.4956" x2="23.6138" y2="-63.9548" gradientUnits="userSpaceOnUse">
<stop stop-color="#0097FE"/>
<stop offset="1" stop-color="#14358A"/>
</linearGradient>
<linearGradient id="paint4_linear_1959_18492" x1="-2.08518" y1="65.4956" x2="23.6138" y2="-63.9548" gradientUnits="userSpaceOnUse">
<stop stop-color="#0097FE"/>
<stop offset="1" stop-color="#14358A"/>
</linearGradient>
<linearGradient id="paint5_linear_1959_18492" x1="-2.08518" y1="65.4956" x2="23.6138" y2="-63.9548" gradientUnits="userSpaceOnUse">
<stop stop-color="#0097FE"/>
<stop offset="1" stop-color="#14358A"/>
</linearGradient>
<linearGradient id="paint6_linear_1959_18492" x1="-2.08518" y1="65.4956" x2="23.6138" y2="-63.9548" gradientUnits="userSpaceOnUse">
<stop stop-color="#0097FE"/>
<stop offset="1" stop-color="#14358A"/>
</linearGradient>
<linearGradient id="paint7_linear_1959_18492" x1="-2.08518" y1="65.4956" x2="23.6138" y2="-63.9548" gradientUnits="userSpaceOnUse">
<stop stop-color="#0097FE"/>
<stop offset="1" stop-color="#14358A"/>
</linearGradient>
<linearGradient id="paint8_linear_1959_18492" x1="-2.08518" y1="65.4956" x2="23.6138" y2="-63.9548" gradientUnits="userSpaceOnUse">
<stop stop-color="#0097FE"/>
<stop offset="1" stop-color="#14358A"/>
</linearGradient>
<linearGradient id="paint9_linear_1959_18492" x1="-2.08518" y1="65.4956" x2="23.6138" y2="-63.9548" gradientUnits="userSpaceOnUse">
<stop stop-color="#0097FE"/>
<stop offset="1" stop-color="#14358A"/>
</linearGradient>
</defs>
</svg>
