<svg width="32" height="32" viewBox="0 0 32 32" fill="none" xmlns="http://www.w3.org/2000/svg">
<path d="M12.917 14.0653C12.8768 12.8623 12.8978 11.6187 12.9288 10.679C13.7581 11.1221 14.8455 11.7257 15.8672 12.362C16.5468 12.7852 17.1804 13.2125 17.6841 13.6081C18.2171 14.0268 18.5022 14.3325 18.5988 14.4998C18.6954 14.6671 18.8176 15.067 18.9137 15.7379C19.0045 16.3719 19.0577 17.1343 19.0845 17.9344C19.1246 19.1374 19.1036 20.3809 19.0727 21.3206C18.2434 20.8776 17.156 20.274 16.1343 19.6377C15.4547 19.2145 14.821 18.7872 14.3174 18.3916C13.7844 17.9729 13.4993 17.6671 13.4027 17.4998C13.3061 17.3325 13.1839 16.9327 13.0878 16.2618C12.997 15.6278 12.9437 14.8654 12.917 14.0653Z" stroke="white" stroke-width="2"/>
<circle cx="16" cy="16" r="12" stroke="white" stroke-width="2"/>
</svg>
