<svg width="24" height="24" viewBox="0 0 24 24" fill="none" xmlns="http://www.w3.org/2000/svg">
<path d="M22.5005 12.2332C22.5005 11.3699 22.4291 10.7399 22.2744 10.0865H12.2148V13.9832H18.1196C18.0006 14.9515 17.3577 16.4099 15.9291 17.3898L15.9091 17.5203L19.0897 19.935L19.3101 19.9565C21.3338 18.1249 22.5005 15.4298 22.5005 12.2332Z" fill="#4285F4"/>
<path d="M12.2159 22.5C15.1088 22.5 17.5373 21.5666 19.3111 19.9566L15.9302 17.3899C15.0255 18.0082 13.8111 18.4399 12.2159 18.4399C9.38265 18.4399 6.97791 16.6083 6.12069 14.0766L5.99504 14.087L2.68778 16.5954L2.64453 16.7132C4.40641 20.1432 8.02545 22.5 12.2159 22.5Z" fill="#34A853"/>
<path d="M6.119 14.0766C5.89281 13.4233 5.76191 12.7233 5.76191 12C5.76191 11.2766 5.89281 10.5766 6.1071 9.9233L6.10111 9.78415L2.75239 7.23552L2.64283 7.28659C1.91667 8.70994 1.5 10.3083 1.5 12C1.5 13.6916 1.91667 15.2899 2.64283 16.7133L6.119 14.0766Z" fill="#FBBC05"/>
<path d="M12.216 5.55997C14.2279 5.55997 15.585 6.41163 16.3588 7.12335L19.3826 4.23C17.5256 2.53834 15.1088 1.5 12.216 1.5C8.02548 1.5 4.40642 3.85665 2.64453 7.28662L6.10881 9.92332C6.97794 7.39166 9.38268 5.55997 12.216 5.55997Z" fill="#EB4335"/>
</svg>
