<svg width="20" height="20" viewBox="0 0 20 20" fill="none" xmlns="http://www.w3.org/2000/svg">
<path fill-rule="evenodd" clip-rule="evenodd" d="M9.60301 3.24978C11.4213 1.42728 14.3555 1.09811 16.3822 2.68311C18.8097 4.58144 18.9688 8.11894 16.8597 10.2331L15.6738 11.4206C15.3463 11.7489 14.8163 11.7489 14.4888 11.4206C14.1613 11.0931 14.1613 10.5606 14.4888 10.2331L15.6738 9.04478C17.053 7.66394 16.978 5.36811 15.4472 4.08644C14.0913 2.95061 12.0563 3.16728 10.8072 4.41894L9.74634 5.48144C9.41967 5.80978 8.88801 5.80978 8.56134 5.48144C8.23384 5.15394 8.23051 4.62478 8.70884 4.14561L9.60301 3.24978ZM11.0745 7.74417L7.74116 11.0775C7.41533 11.4033 7.41533 11.93 7.74116 12.2558C7.90366 12.4183 8.11699 12.5 8.33033 12.5C8.54366 12.5 8.75699 12.4183 8.91949 12.2558L12.2528 8.92251C12.5787 8.59667 12.5787 8.07001 12.2528 7.74417C11.927 7.41834 11.4003 7.41834 11.0745 7.74417ZM10.2307 14.4971L9.16901 15.5563C7.91817 16.8038 5.87901 17.0188 4.52234 15.888C2.98984 14.6113 2.91401 12.323 4.29484 10.9455L5.48234 9.76213C5.80984 9.43546 5.80984 8.90546 5.48234 8.57796C5.15484 8.25213 4.62318 8.25213 4.29484 8.57796L3.23234 9.6388C1.42234 11.4438 1.10484 14.3471 2.66984 16.3671C4.56234 18.8113 8.11234 18.9763 10.2307 16.8646L11.4182 15.6813C11.7457 15.3538 11.7457 14.8246 11.4182 14.4971C11.0898 14.1696 10.559 14.1696 10.2307 14.4971Z" fill="#231F20"/>
<mask id="mask0_3150_55204" style="mask-type:alpha" maskUnits="userSpaceOnUse" x="1" y="1" width="18" height="18">
<path fill-rule="evenodd" clip-rule="evenodd" d="M9.60301 3.24978C11.4213 1.42728 14.3555 1.09811 16.3822 2.68311C18.8097 4.58144 18.9688 8.11894 16.8597 10.2331L15.6738 11.4206C15.3463 11.7489 14.8163 11.7489 14.4888 11.4206C14.1613 11.0931 14.1613 10.5606 14.4888 10.2331L15.6738 9.04478C17.053 7.66394 16.978 5.36811 15.4472 4.08644C14.0913 2.95061 12.0563 3.16728 10.8072 4.41894L9.74634 5.48144C9.41967 5.80978 8.88801 5.80978 8.56134 5.48144C8.23384 5.15394 8.23051 4.62478 8.70884 4.14561L9.60301 3.24978ZM11.0745 7.74417L7.74116 11.0775C7.41533 11.4033 7.41533 11.93 7.74116 12.2558C7.90366 12.4183 8.11699 12.5 8.33033 12.5C8.54366 12.5 8.75699 12.4183 8.91949 12.2558L12.2528 8.92251C12.5787 8.59667 12.5787 8.07001 12.2528 7.74417C11.927 7.41834 11.4003 7.41834 11.0745 7.74417ZM10.2307 14.4971L9.16901 15.5563C7.91817 16.8038 5.87901 17.0188 4.52234 15.888C2.98984 14.6113 2.91401 12.323 4.29484 10.9455L5.48234 9.76213C5.80984 9.43546 5.80984 8.90546 5.48234 8.57796C5.15484 8.25213 4.62318 8.25213 4.29484 8.57796L3.23234 9.6388C1.42234 11.4438 1.10484 14.3471 2.66984 16.3671C4.56234 18.8113 8.11234 18.9763 10.2307 16.8646L11.4182 15.6813C11.7457 15.3538 11.7457 14.8246 11.4182 14.4971C11.0898 14.1696 10.559 14.1696 10.2307 14.4971Z" fill="white"/>
</mask>
<g mask="url(#mask0_3150_55204)">
<rect width="20" height="13.092" fill="#0D1C2E"/>
</g>
</svg>
