<svg width="20" height="20" viewBox="0 0 20 20" fill="none" xmlns="http://www.w3.org/2000/svg">
<path d="M10.2329 16.1345L10.5828 16.7979H10.5828L10.2329 16.1345ZM9.4338 16.1345L9.08391 16.7979H9.08391L9.4338 16.1345ZM14.9167 8.83333C14.9167 10.6198 14.0233 12.0939 12.9063 13.2402C11.7893 14.3864 10.507 15.142 9.88297 15.4711L10.5828 16.7979C11.2751 16.4327 12.7097 15.5911 13.9805 14.2871C15.2513 12.9831 16.4167 11.1538 16.4167 8.83333H14.9167ZM9.83333 3.75C12.6408 3.75 14.9167 6.02589 14.9167 8.83333H16.4167C16.4167 5.19746 13.4692 2.25 9.83333 2.25V3.75ZM4.75 8.83333C4.75 6.02589 7.02589 3.75 9.83333 3.75V2.25C6.19746 2.25 3.25 5.19746 3.25 8.83333H4.75ZM9.78369 15.4711C9.15964 15.142 7.8774 14.3864 6.76039 13.2402C5.64333 12.0939 4.75 10.6198 4.75 8.83333H3.25C3.25 11.1538 4.41538 12.9831 5.68612 14.2871C6.95692 15.5911 8.39158 16.4327 9.08391 16.7979L9.78369 15.4711ZM9.88298 15.4711C9.84999 15.4885 9.81668 15.4885 9.78369 15.4711L9.08391 16.7979C9.55483 17.0463 10.1118 17.0463 10.5828 16.7979L9.88298 15.4711ZM11.5833 8.83333C11.5833 9.79983 10.7998 10.5833 9.83333 10.5833V12.0833C11.6283 12.0833 13.0833 10.6283 13.0833 8.83333H11.5833ZM9.83333 7.08333C10.7998 7.08333 11.5833 7.86684 11.5833 8.83333H13.0833C13.0833 7.03841 11.6283 5.58333 9.83333 5.58333V7.08333ZM8.08333 8.83333C8.08333 7.86684 8.86684 7.08333 9.83333 7.08333V5.58333C8.03841 5.58333 6.58333 7.03841 6.58333 8.83333H8.08333ZM9.83333 10.5833C8.86684 10.5833 8.08333 9.79983 8.08333 8.83333H6.58333C6.58333 10.6283 8.03841 12.0833 9.83333 12.0833V10.5833Z" fill="#68718B"/>
</svg>
