<svg width="32" height="32" viewBox="0 0 32 32" fill="none" xmlns="http://www.w3.org/2000/svg">
<path fill-rule="evenodd" clip-rule="evenodd" d="M16.0002 21.3333C15.2642 21.3333 14.6668 20.736 14.6668 20C14.6668 19.264 15.2642 18.6666 16.0002 18.6666C16.7362 18.6666 17.3335 19.264 17.3335 20C17.3335 20.736 16.7362 21.3333 16.0002 21.3333ZM16.0002 16C13.7948 16 12.0002 17.7946 12.0002 20C12.0002 22.2053 13.7948 24 16.0002 24C18.2055 24 20.0002 22.2053 20.0002 20C20.0002 17.7946 18.2055 16 16.0002 16ZM24.0002 25.3333C24.0002 26.0693 23.4028 26.6666 22.6668 26.6666H9.3335C8.5975 26.6666 8.00016 26.0693 8.00016 25.3333V14.6666C8.00016 13.9306 8.5975 13.3333 9.3335 13.3333H10.6668H13.3335H18.6668H21.3335H22.6668C23.4028 13.3333 24.0002 13.9306 24.0002 14.6666V25.3333ZM13.3335 8.14796C13.3335 6.59596 14.5295 5.33329 16.0002 5.33329C17.4708 5.33329 18.6668 6.59596 18.6668 8.14796V10.6666H13.3335V8.14796ZM22.6668 10.6666H21.3335V8.14796C21.3335 5.12663 18.9415 2.66663 16.0002 2.66663C13.0588 2.66663 10.6668 5.12663 10.6668 8.14796V10.6666H9.3335C7.12816 10.6666 5.3335 12.4613 5.3335 14.6666V25.3333C5.3335 27.5386 7.12816 29.3333 9.3335 29.3333H22.6668C24.8722 29.3333 26.6668 27.5386 26.6668 25.3333V14.6666C26.6668 12.4613 24.8722 10.6666 22.6668 10.6666Z" fill="#03133D"/>
<mask id="mask0_2418_178197" style="mask-type:alpha" maskUnits="userSpaceOnUse" x="5" y="2" width="22" height="28">
<path fill-rule="evenodd" clip-rule="evenodd" d="M16.0002 21.3333C15.2642 21.3333 14.6668 20.736 14.6668 20C14.6668 19.264 15.2642 18.6666 16.0002 18.6666C16.7362 18.6666 17.3335 19.264 17.3335 20C17.3335 20.736 16.7362 21.3333 16.0002 21.3333ZM16.0002 16C13.7948 16 12.0002 17.7946 12.0002 20C12.0002 22.2053 13.7948 24 16.0002 24C18.2055 24 20.0002 22.2053 20.0002 20C20.0002 17.7946 18.2055 16 16.0002 16ZM24.0002 25.3333C24.0002 26.0693 23.4028 26.6666 22.6668 26.6666H9.3335C8.5975 26.6666 8.00016 26.0693 8.00016 25.3333V14.6666C8.00016 13.9306 8.5975 13.3333 9.3335 13.3333H10.6668H13.3335H18.6668H21.3335H22.6668C23.4028 13.3333 24.0002 13.9306 24.0002 14.6666V25.3333ZM13.3335 8.14796C13.3335 6.59596 14.5295 5.33329 16.0002 5.33329C17.4708 5.33329 18.6668 6.59596 18.6668 8.14796V10.6666H13.3335V8.14796ZM22.6668 10.6666H21.3335V8.14796C21.3335 5.12663 18.9415 2.66663 16.0002 2.66663C13.0588 2.66663 10.6668 5.12663 10.6668 8.14796V10.6666H9.3335C7.12816 10.6666 5.3335 12.4613 5.3335 14.6666V25.3333C5.3335 27.5386 7.12816 29.3333 9.3335 29.3333H22.6668C24.8722 29.3333 26.6668 27.5386 26.6668 25.3333V14.6666C26.6668 12.4613 24.8722 10.6666 22.6668 10.6666Z" fill="white"/>
</mask>
<g mask="url(#mask0_2418_178197)">
<rect width="32" height="32" fill="white"/>
</g>
</svg>
