<svg width="32" height="32" viewBox="0 0 32 32" fill="none" xmlns="http://www.w3.org/2000/svg">
<path fill-rule="evenodd" clip-rule="evenodd" d="M26.6665 18.6667C26.6665 19.4013 26.0692 20 25.3332 20H16.1158H15.8838H6.6665C5.9305 20 5.33317 19.4013 5.33317 18.6667V8C5.33317 7.26533 5.9305 6.66667 6.6665 6.66667H25.3332C26.0692 6.66667 26.6665 7.26533 26.6665 8V18.6667ZM25.3332 4H6.6665C4.46117 4 2.6665 5.79467 2.6665 8V18.6667C2.6665 20.872 4.46117 22.6667 6.6665 22.6667H14.6665V25.3333H9.33317C8.59984 25.3333 7.99984 25.9333 7.99984 26.6667C7.99984 27.4 8.59984 28 9.33317 28H22.6665C23.3998 28 23.9998 27.4 23.9998 26.6667C23.9998 25.9333 23.3998 25.3333 22.6665 25.3333H17.3332V22.6667H25.3332C27.5385 22.6667 29.3332 20.872 29.3332 18.6667V8C29.3332 5.79467 27.5385 4 25.3332 4Z" fill="#03133D"/>
<mask id="mask0_2418_178205" style="mask-type:alpha" maskUnits="userSpaceOnUse" x="2" y="4" width="28" height="24">
<path fill-rule="evenodd" clip-rule="evenodd" d="M26.6665 18.6667C26.6665 19.4013 26.0692 20 25.3332 20H16.1158H15.8838H6.6665C5.9305 20 5.33317 19.4013 5.33317 18.6667V8C5.33317 7.26533 5.9305 6.66667 6.6665 6.66667H25.3332C26.0692 6.66667 26.6665 7.26533 26.6665 8V18.6667ZM25.3332 4H6.6665C4.46117 4 2.6665 5.79467 2.6665 8V18.6667C2.6665 20.872 4.46117 22.6667 6.6665 22.6667H14.6665V25.3333H9.33317C8.59984 25.3333 7.99984 25.9333 7.99984 26.6667C7.99984 27.4 8.59984 28 9.33317 28H22.6665C23.3998 28 23.9998 27.4 23.9998 26.6667C23.9998 25.9333 23.3998 25.3333 22.6665 25.3333H17.3332V22.6667H25.3332C27.5385 22.6667 29.3332 20.872 29.3332 18.6667V8C29.3332 5.79467 27.5385 4 25.3332 4Z" fill="white"/>
</mask>
<g mask="url(#mask0_2418_178205)">
<rect width="32" height="32" fill="white"/>
</g>
</svg>
