<svg width="32" height="32" viewBox="0 0 32 32" fill="none" xmlns="http://www.w3.org/2000/svg">
<path d="M3.7477 17.9445C3.21899 16.9941 2.95464 16.5188 2.95464 16C2.95464 15.4812 3.21899 15.0059 3.7477 14.0555L5.90726 10.1733L8.18954 6.36202C8.74829 5.42892 9.02766 4.96237 9.47699 4.70295C9.92632 4.44353 10.4701 4.43486 11.5575 4.41751L15.9993 4.34667L20.4412 4.41751C21.5286 4.43486 22.0724 4.44353 22.5217 4.70295C22.971 4.96237 23.2504 5.42892 23.8092 6.36202L26.0914 10.1733L28.251 14.0555C28.7797 15.0059 29.0441 15.4812 29.0441 16C29.0441 16.5188 28.7797 16.9941 28.251 17.9445L26.0914 21.8267L23.8092 25.638C23.2504 26.5711 22.971 27.0376 22.5217 27.2971C22.0724 27.5565 21.5286 27.5651 20.4412 27.5825L15.9993 27.6533L11.5575 27.5825C10.4701 27.5651 9.92632 27.5565 9.47699 27.2971C9.02766 27.0376 8.74829 26.5711 8.18954 25.638L5.90727 21.8267L3.7477 17.9445Z" stroke="white" stroke-width="2"/>
<circle cx="16" cy="16" r="4" stroke="white" stroke-width="2"/>
</svg>
