<svg width="32" height="32" viewBox="0 0 32 32" fill="none" xmlns="http://www.w3.org/2000/svg">
<path fill-rule="evenodd" clip-rule="evenodd" d="M20 16H17.3333V13.3333C17.3333 12.596 16.736 12 16 12C15.264 12 14.6667 12.596 14.6667 13.3333V17.3333C14.6667 18.0706 15.264 18.6666 16 18.6666H20C20.736 18.6666 21.3333 18.0706 21.3333 17.3333C21.3333 16.596 20.736 16 20 16ZM16 26.3333C11.0373 26.3333 7 22.296 7 17.3333C7 12.3706 11.0373 8.33331 16 8.33331C20.9627 8.33331 25 12.3706 25 17.3333C25 22.296 20.9627 26.3333 16 26.3333ZM17.3173 5.41065C17.32 5.38265 17.3333 5.36131 17.3333 5.33331V3.99998H18.6667C19.4027 3.99998 20 3.40398 20 2.66665C20 1.92931 19.4027 1.33331 18.6667 1.33331H13.3333C12.5973 1.33331 12 1.92931 12 2.66665C12 3.40398 12.5973 3.99998 13.3333 3.99998H14.6667V5.33331C14.6667 5.36131 14.68 5.38265 14.6827 5.41065C8.684 6.06931 4 11.1626 4 17.3333C4 23.9506 9.384 29.3333 16 29.3333C22.616 29.3333 28 23.9506 28 17.3333C28 11.1626 23.316 6.06931 17.3173 5.41065Z" fill="#03133D"/>
<mask id="mask0_2418_178187" style="mask-type:alpha" maskUnits="userSpaceOnUse" x="4" y="1" width="24" height="29">
<path fill-rule="evenodd" clip-rule="evenodd" d="M20 16H17.3333V13.3333C17.3333 12.596 16.736 12 16 12C15.264 12 14.6667 12.596 14.6667 13.3333V17.3333C14.6667 18.0706 15.264 18.6666 16 18.6666H20C20.736 18.6666 21.3333 18.0706 21.3333 17.3333C21.3333 16.596 20.736 16 20 16ZM16 26.3333C11.0373 26.3333 7 22.296 7 17.3333C7 12.3706 11.0373 8.33331 16 8.33331C20.9627 8.33331 25 12.3706 25 17.3333C25 22.296 20.9627 26.3333 16 26.3333ZM17.3173 5.41065C17.32 5.38265 17.3333 5.36131 17.3333 5.33331V3.99998H18.6667C19.4027 3.99998 20 3.40398 20 2.66665C20 1.92931 19.4027 1.33331 18.6667 1.33331H13.3333C12.5973 1.33331 12 1.92931 12 2.66665C12 3.40398 12.5973 3.99998 13.3333 3.99998H14.6667V5.33331C14.6667 5.36131 14.68 5.38265 14.6827 5.41065C8.684 6.06931 4 11.1626 4 17.3333C4 23.9506 9.384 29.3333 16 29.3333C22.616 29.3333 28 23.9506 28 17.3333C28 11.1626 23.316 6.06931 17.3173 5.41065Z" fill="white"/>
</mask>
<g mask="url(#mask0_2418_178187)">
<rect width="32" height="32" fill="white"/>
</g>
</svg>
