<?xml version="1.0" encoding="UTF-8"?>
<!DOCTYPE svg PUBLIC "-//W3C//DTD SVG 1.1//EN" "http://www.w3.org/Graphics/SVG/1.1/DTD/svg11.dtd">
<!-- Creator: CorelDRAW 2021 (64-Bit) -->
<svg xmlns="http://www.w3.org/2000/svg" xml:space="preserve" width="15in" height="12.5in" version="1.1" style="shape-rendering:geometricPrecision; text-rendering:geometricPrecision; image-rendering:optimizeQuality; fill-rule:evenodd; clip-rule:evenodd"
viewBox="0 0 16217.16 13514.3"
 xmlns:xlink="http://www.w3.org/1999/xlink"
 xmlns:xodm="http://www.corel.com/coreldraw/odm/2003">
 <defs>
  <style type="text/css">
   <![CDATA[
    .str1 {stroke:white;stroke-width:11.26;stroke-miterlimit:2.61313;stroke-opacity:0.200000}
    .str0 {stroke:white;stroke-width:12.47;stroke-miterlimit:2.61313;stroke-opacity:0.200000}
    .str2 {stroke:white;stroke-width:11.26;stroke-miterlimit:2.61313;stroke-opacity:0.400000}
    .fil9 {fill:none}
    .fil3 {fill:none;fill-rule:nonzero}
    .fil6 {fill:none;fill-rule:nonzero}
    .fil0 {fill:#FF4C29;fill-rule:nonzero}
    .fil1 {fill:#FF6449;fill-rule:nonzero}
    .fil5 {fill:url(#id3);fill-rule:nonzero}
    .fil7 {fill:url(#id4);fill-rule:nonzero}
    .fil4 {fill:url(#id5);fill-rule:nonzero}
    .fil2 {fill:url(#id6);fill-rule:nonzero}
    .fil8 {fill:url(#id7);fill-rule:nonzero}
   ]]>
  </style>
   <clipPath id="id0">
    <path d="M-0 13514.3l16217.16 0 0 -13514.3 -16217.16 0 0 13514.3z"/>
   </clipPath>
    <clipPath id="id1">
    </clipPath>
    <clipPath id="id2">
     <path d="M-0 13514.3l16217.16 0 0 -13514.3 -16217.16 0 0 13514.3z"/>
    </clipPath>
  <linearGradient id="id3" gradientUnits="userSpaceOnUse" x1="2883.06" y1="2883.05" x2="56.31" y2="1903.26">
   <stop offset="0" style="stop-opacity:0.2; stop-color:#0097FE"/>
   <stop offset="1" style="stop-opacity:0.2; stop-color:#0097FE"/>
  </linearGradient>
  <linearGradient id="id4" gradientUnits="userSpaceOnUse" x1="14494.09" y1="7049.96" x2="8637.89" y2="5011.55">
   <stop offset="0" style="stop-opacity:0.101961; stop-color:#0097FE"/>
   <stop offset="1" style="stop-opacity:0.0509804; stop-color:#0097FE"/>
  </linearGradient>
  <linearGradient id="id5" gradientUnits="userSpaceOnUse" x1="7061.23" y1="9493.79" x2="4279.53" y2="8412.65">
   <stop offset="0" style="stop-opacity:0; stop-color:#0097FE"/>
   <stop offset="1" style="stop-opacity:0.858824; stop-color:#ED6217"/>
  </linearGradient>
  <linearGradient id="id6" gradientUnits="userSpaceOnUse" x1="10335.25" y1="2159.68" x2="17051.07" y2="-393.67">
   <stop offset="0" style="stop-opacity:1; stop-color:#DE7B2F"/>
   <stop offset="1" style="stop-opacity:1; stop-color:#B14EDF"/>
  </linearGradient>
  <linearGradient id="id7" gradientUnits="userSpaceOnUse" x1="17872.67" y1="5439.5" x2="15045.92" y2="4459.72">
   <stop offset="0" style="stop-opacity:0; stop-color:#0097FE"/>
   <stop offset="1" style="stop-opacity:0.858824; stop-color:#0097FE"/>
  </linearGradient>
 </defs>
 <g id="Layer_x0020_1">
  <metadata id="CorelCorpID_0Corel-Layer"/>
  <g>
  </g>
  <g style="clip-path:url(#id0)">
   <g>
    <polygon class="fil0" points="-6194.06,-0 16217.16,-0 16217.16,13514.3 -6194.06,13514.3 "/>
    <path class="fil1" d="M12701.19 8830.01c5404.26,-2781.58 3636.81,2382.29 6932.05,2878.55 3295.35,496.31 5819.14,-4863.77 -1498.74,-8911.45 -7317.94,-4047.68 -14668.88,10786.45 -5433.31,6032.91z" filter="url(#filter0_f_2934_46822)"/>
    <path class="fil2" d="M11429.16 1520.36c1168.76,1775.81 2455.66,-1587.85 4872.02,1503.61 2416.24,3091.46 4576.4,-3091.46 255.98,-5120.04 -4320.41,-2028.58 -6517.45,1505.2 -5128.01,3616.43z" filter="url(#filter1_f_2934_46822)"/>
    <path class="fil1" d="M1480.09 -167.32c3009.02,1548.47 6400.15,-2069.1 7026.04,325.41 625.9,2394.5 -4411.98,79.82 -9149.19,3745.26 -4737.21,3665.42 -3019.05,-6716.9 2123.15,-4070.67z" filter="url(#filter2_f_2934_46822)"/>
    <polygon class="fil3 str0" points="11639.42,17703.06 8902.44,17984.61 5140.73,4637.08 7837.39,4359.67 "/>
    <polygon class="fil3 str1" points="5844,8870.63 4942.17,6554.33 17259.01,-544.93 18147.57,1737.27 "/>
    <polygon class="fil4" points="3685.41,9649.99 7083,9180.53 7058.74,9854.08 3660.79,10333.57 "/>
    <polygon class="fil5" points="-495.53,3166.59 2883.05,2578.83 2883.05,3251.92 -495.53,3849.7 "/>
    <polygon class="fil6 str2" points="-3192.76,3993.62 -3192.76,2598.36 3755.85,1389.96 3755.85,2764.62 "/>
    <polygon class="fil7" points="7489.17,7623.33 14494.09,6404.59 14494.09,7800.26 7489.17,9039.78 "/>
    <polygon class="fil8" points="14494.09,5720.57 17872.67,5132.03 17872.67,5806.01 14494.09,6404.59 "/>
   </g>
   <g style="clip-path:url(#id1)">
    <image x="-14641.47" y="-1553.81" width="6051.4" height="4639.91" xlink:href="bg-utilites-pages_Images\bg-utilites-pages_ImgID1.png"/>
   </g>
   <g style="clip-path:url(#id2)">
   </g>
  </g>
  <polygon class="fil9" points="-0,13514.3 16217.16,13514.3 16217.16,0 -0,0 "/>
 </g>
</svg>
