<?xml version="1.0" encoding="UTF-8"?>
<!DOCTYPE svg PUBLIC "-//W3C//DTD SVG 1.1//EN" "http://www.w3.org/Graphics/SVG/1.1/DTD/svg11.dtd">
<!-- Creator: CorelDRAW 2021 (64-Bit) -->
<svg xmlns="http://www.w3.org/2000/svg" xml:space="preserve" width="20.7292in" height="8.39583in" version="1.1" style="shape-rendering:geometricPrecision; text-rendering:geometricPrecision; image-rendering:optimizeQuality; fill-rule:evenodd; clip-rule:evenodd"
viewBox="0 0 7077.23 2866.46"
 xmlns:xlink="http://www.w3.org/1999/xlink"
 xmlns:xodm="http://www.corel.com/coreldraw/odm/2003">
 <defs>
  <style type="text/css">
   <![CDATA[
    .str0 {stroke:#5371E7;stroke-width:3.56;stroke-miterlimit:2.61313}
    .str1 {stroke:white;stroke-width:3.56;stroke-miterlimit:2.61313}
    .fil3 {fill:none;fill-rule:nonzero}
    .fil2 {fill:#FF4C29;fill-rule:nonzero}
    .fil1 {fill:#FF6449;fill-rule:nonzero}
    .fil0 {fill:url(#id11);fill-rule:nonzero}
   ]]>
  </style>
   <clipPath id="id0" style="clip-rule:nonzero">
    <path d="M-0 0l7077.23 0 0 2866.46 -7077.23 0 0 -2866.46z"/>
   </clipPath>
     <mask id="id1">
  <linearGradient id="id2" gradientUnits="userSpaceOnUse" x1="2467.21" y1="2842.92" x2="6681.63" y2="1458.32">
   <stop offset="0" style="stop-opacity:1; stop-color:white"/>
   <stop offset="1" style="stop-opacity:1; stop-color:white"/>
  </linearGradient>
      <rect style="fill:url(#id2)" x="2466.69" y="1401.68" width="4355.49" height="2155.43"/>
     </mask>
     <mask id="id3">
  <linearGradient id="id4" gradientUnits="userSpaceOnUse" x1="3914.54" y1="670.21" x2="7253.72" y2="-700.31">
   <stop offset="0" style="stop-opacity:1; stop-color:white"/>
   <stop offset="1" style="stop-opacity:1; stop-color:white"/>
  </linearGradient>
      <rect style="fill:url(#id4)" x="3914.02" y="-756.38" width="3451.17" height="2133.52"/>
     </mask>
     <mask id="id5">
  <linearGradient id="id6" gradientUnits="userSpaceOnUse" x1="-442.33" y1="860.5" x2="4618.79" y2="-261.25">
   <stop offset="0" style="stop-opacity:1; stop-color:white"/>
   <stop offset="1" style="stop-opacity:1; stop-color:white"/>
  </linearGradient>
      <rect style="fill:url(#id6)" x="-442.84" y="-307.24" width="5230.32" height="1746.46"/>
     </mask>
     <mask id="id7">
  <linearGradient id="id8" gradientUnits="userSpaceOnUse" x1="4682" y1="2460.74" x2="6243.27" y2="2063.11">
   <stop offset="0" style="stop-opacity:1; stop-color:white"/>
   <stop offset="1" style="stop-opacity:1; stop-color:white"/>
  </linearGradient>
      <rect style="fill:url(#id8)" x="4680.22" y="2045.21" width="1616.7" height="622.26"/>
     </mask>
     <mask id="id9">
  <linearGradient id="id10" gradientUnits="userSpaceOnUse" x1="-851.76" y1="1345.56" x2="1271.97" y2="802.93">
   <stop offset="0" style="stop-opacity:1; stop-color:white"/>
   <stop offset="1" style="stop-opacity:1; stop-color:white"/>
  </linearGradient>
      <rect style="fill:url(#id10)" x="-853.54" y="779.15" width="2197.85" height="847.88"/>
     </mask>
  <linearGradient id="id11" gradientUnits="userSpaceOnUse" x1="-0" y1="1916.9" x2="6849.62" y2="74.69">
   <stop offset="0" style="stop-opacity:1; stop-color:#1B45B4"/>
   <stop offset="1" style="stop-opacity:1; stop-color:#1C2792"/>
  </linearGradient>
 </defs>
 <g id="Layer_x0020_1">
  <metadata id="CorelCorpID_0Corel-Layer"/>
  <polygon class="fil0" points="-0,0 7077.23,0 7077.23,2866.46 -0,2866.46 "/>
  <polygon class="fil1" points="-0,0 7077.23,0 7077.23,2866.46 -0,2866.46 "/>
  <g style="clip-path:url(#id0)">
   <g id="_2248538809264">
    <path id="_1" class="fil2" style="mask:url(#id1)" d="M3765.76 2906.89c1623.6,-620.88 1092.63,531.76 2082.63,642.54 990,110.78 1748.18,-1085.67 -450.31,-1989.16 -2198.52,-903.49 -4406.97,2407.68 -1632.32,1346.62z" filter="url(#filter0_f_4138_54509)"/>
    <path class="fil2" style="mask:url(#id3)" d="M4093.13 613.46c502.88,575.78 1056.61,-514.84 2096.25,487.53 1039.64,1002.37 1969.14,-1002.37 110.18,-1660.11 -1858.97,-657.74 -2804.3,488.04 -2206.43,1172.58z" filter="url(#filter1_f_4138_54509)"/>
    <path class="fil2" style="mask:url(#id5)" d="M1697.67 -138.24c1313.14,502.07 2793.06,-670.88 3066.2,105.51 273.13,776.39 -1925.41,25.88 -3992.75,1214.35 -2067.34,1188.47 -1317.52,-2177.87 926.55,-1319.86z" filter="url(#filter2_f_4138_54509)"/>
    <polygon class="fil3 str0" style="mask:url(#id7)" points="4682,2665.69 4682,2334.46 6295.15,2046.99 6295.15,2373.31 "/>
    <polygon class="fil3 str1" style="mask:url(#id9)" points="-851.76,1625.26 -851.76,1172.75 1342.54,780.93 1342.54,1226.76 "/>
   </g>
  </g>
  <polygon class="fil3" points="-0,0 7077.23,0 7077.23,2866.46 -0,2866.46 "/>
 </g>
</svg>
