<?xml version="1.0" encoding="UTF-8"?>
<!DOCTYPE svg PUBLIC "-//W3C//DTD SVG 1.1//EN" "http://www.w3.org/Graphics/SVG/1.1/DTD/svg11.dtd">
<!-- Creator: CorelDRAW 2021 (64-Bit) -->
<svg xmlns="http://www.w3.org/2000/svg" xml:space="preserve" width="20.7292in" height="8.33333in" version="1.1" style="shape-rendering:geometricPrecision; text-rendering:geometricPrecision; image-rendering:optimizeQuality; fill-rule:evenodd; clip-rule:evenodd"
viewBox="0 0 7065.25 2840.3"
 xmlns:xlink="http://www.w3.org/1999/xlink"
 xmlns:xodm="http://www.corel.com/coreldraw/odm/2003">
 <defs>
  <style type="text/css">
   <![CDATA[
    .str0 {stroke:#0097FE;stroke-width:3.55;stroke-miterlimit:2.61313}
    .str1 {stroke:white;stroke-width:3.55;stroke-miterlimit:2.61313}
    .fil1 {fill:none;fill-rule:nonzero}
    .fil0 {fill:#FF4C29;fill-rule:nonzero}
    .fil2 {fill:#FF6449;fill-rule:nonzero}
    .fil3 {fill:url(#id13);fill-rule:nonzero}
   ]]>
  </style>
   <clipPath id="id0" style="clip-rule:nonzero">
    <path d="M-0 0l7065.25 0 0 2840.3 -7065.25 0 0 -2840.3z"/>
   </clipPath>
     <mask id="id1">
  <linearGradient id="id2" gradientUnits="userSpaceOnUse" x1="4673.12" y1="2702.9" x2="6124.25" y2="2329.85">
   <stop offset="0" style="stop-opacity:1; stop-color:white"/>
   <stop offset="1" style="stop-opacity:1; stop-color:white"/>
  </linearGradient>
      <rect style="fill:url(#id2)" x="4671.34" y="2335.79" width="1509.94" height="564.53"/>
     </mask>
     <mask id="id3">
  <linearGradient id="id4" gradientUnits="userSpaceOnUse" x1="3837.96" y1="2608.19" x2="5590.61" y2="2152.76">
   <stop offset="0" style="stop-opacity:1; stop-color:white"/>
   <stop offset="1" style="stop-opacity:1; stop-color:white"/>
  </linearGradient>
      <rect style="fill:url(#id4)" x="3837.45" y="2161.67" width="1820.41" height="685.87"/>
     </mask>
     <mask id="id5">
  <linearGradient id="id6" gradientUnits="userSpaceOnUse" x1="1782.29" y1="2723.98" x2="4812.53" y2="1330.99">
   <stop offset="0" style="stop-opacity:1; stop-color:white"/>
   <stop offset="1" style="stop-opacity:1; stop-color:white"/>
  </linearGradient>
      <rect style="fill:url(#id6)" x="1781.78" y="1359.28" width="3146.65" height="2095.75"/>
     </mask>
     <mask id="id7">
  <linearGradient id="id8" gradientUnits="userSpaceOnUse" x1="3362.21" y1="611.84" x2="5763.15" y2="-766.99">
   <stop offset="0" style="stop-opacity:1; stop-color:white"/>
   <stop offset="1" style="stop-opacity:1; stop-color:white"/>
  </linearGradient>
      <rect style="fill:url(#id8)" x="3361.7" y="-738.99" width="2493.39" height="2074.44"/>
     </mask>
     <mask id="id9">
  <linearGradient id="id10" gradientUnits="userSpaceOnUse" x1="-319.54" y1="803.44" x2="3319.5" y2="-325.12">
   <stop offset="0" style="stop-opacity:1; stop-color:white"/>
   <stop offset="1" style="stop-opacity:1; stop-color:white"/>
  </linearGradient>
      <rect style="fill:url(#id10)" x="-320.05" y="-302.3" width="3778.63" height="1698.11"/>
     </mask>
     <mask id="id11">
  <linearGradient id="id12" gradientUnits="userSpaceOnUse" x1="-1287.01" y1="694.46" x2="412.8" y2="255.77">
   <stop offset="0" style="stop-opacity:1; stop-color:white"/>
   <stop offset="1" style="stop-opacity:1; stop-color:white"/>
  </linearGradient>
      <rect style="fill:url(#id12)" x="-1288.79" y="263.06" width="1768.09" height="663.24"/>
     </mask>
  <linearGradient id="id13" gradientUnits="userSpaceOnUse" x1="3152.88" y1="794.46" x2="5246.42" y2="7.75">
   <stop offset="0" style="stop-opacity:1; stop-color:#EB712F"/>
   <stop offset="1" style="stop-opacity:1; stop-color:#B14EDF"/>
  </linearGradient>
 </defs>
 <g id="Layer_x0020_1">
  <metadata id="CorelCorpID_0Corel-Layer"/>
  <polygon class="fil0" points="-0,0 7065.25,0 7065.25,2840.3 -0,2840.3 "/>
  <g style="clip-path:url(#id0)">
   <g id="_2250352465952">
    <polygon id="_1" class="fil1 str0" style="mask:url(#id1)" points="4673.12,2898.54 4673.12,2598.35 6179.51,2337.57 6179.51,2633.32 "/>
    <polygon class="fil0" style="mask:url(#id3)" points="3837.96,2478.91 5657.35,2162.18 5657.35,2524.89 3837.96,2847.03 "/>
    <path class="fil2" style="mask:url(#id5)" d="M2720.35 2822.81c1172.89,-603.68 789.31,517.02 1504.46,624.74 715.19,107.73 1262.9,-1055.59 -325.29,-1934.05 -1588.18,-878.46 -3183.55,2340.97 -1179.17,1309.31z" filter="url(#filter0_f_4202_54473)"/>
    <path class="fil3" style="mask:url(#id7)" d="M3491.22 592.91c363.28,559.83 763.27,-500.58 1514.32,474.02 751.05,974.6 1422.5,-974.6 79.6,-1614.12 -1342.9,-639.52 -2025.81,474.52 -1593.92,1140.1z" filter="url(#filter1_f_4202_54473)"/>
    <path class="fil2" style="mask:url(#id9)" d="M1226.39 -137.96c948.61,488.16 2017.68,-652.29 2215,102.59 197.33,754.88 -1390.9,25.16 -2884.33,1180.71 -1493.43,1155.55 -951.77,-2117.54 669.34,-1283.3z" filter="url(#filter2_f_4202_54473)"/>
    <polygon class="fil1 str1" style="mask:url(#id11)" points="-1287.01,924.53 -1287.01,571.28 477.53,264.84 477.53,612.87 "/>
   </g>
  </g>
  <polygon class="fil1" points="-0,0 7065.25,0 7065.25,2840.3 -0,2840.3 "/>
 </g>
</svg>
