<svg width="32" height="32" viewBox="0 0 32 32" fill="none" xmlns="http://www.w3.org/2000/svg">
<rect width="32" height="32" rx="16" fill="url(#paint0_linear_2716_59192)"/>
<path d="M22.2504 23.1349L22.2526 23.1327L22.2542 23.1308C22.4289 22.9441 22.5989 22.7447 22.7599 22.5373L23.6139 21.4369V23.9607H27V14.895H20.7873H18.5516V18.2851H21.1742L20.8172 18.9812C20.2953 19.9984 19.5065 20.8564 18.5356 21.4624C17.5371 22.0855 16.3846 22.4152 15.2024 22.4152C14.222 22.4152 13.282 22.1961 12.4092 21.7637C11.578 21.3521 10.8334 20.749 10.2559 20.0191L10.2543 20.0169L10.2533 20.0156L10.2524 20.0144C10.2431 20.0029 10.2342 19.9911 10.225 19.9793L10.2209 19.9742C10.0468 19.7528 9.8861 19.5145 9.74354 19.266C9.18795 18.3077 8.89424 17.2127 8.89424 16.0992C8.89424 15.8581 8.90856 15.6124 8.93624 15.3694C8.99447 14.6621 9.15262 14.0029 9.40624 13.4097C9.73558 12.6406 10.1846 11.9767 10.7408 11.4367C11.2974 10.8967 11.9557 10.473 12.6981 10.1773C13.4418 9.88136 14.2389 9.7313 15.0665 9.7313C16.0832 9.7313 16.9656 9.89792 17.6892 10.2264C18.2496 10.4809 18.7797 10.8314 19.2653 11.2679C19.4591 11.4313 19.6437 11.6071 19.8171 11.7932L19.9405 11.6725L22.378 9.28464L22.5072 9.15784L22.3844 9.02499C21.5144 8.08325 20.4576 7.33584 19.243 6.80284C18.6346 6.53618 17.9766 6.33324 17.287 6.20007C16.5993 6.06722 15.8611 6 15.0929 6C13.7132 6 12.3936 6.25168 11.1704 6.74836C9.94783 7.24536 8.86942 7.94721 7.96507 8.8348C7.06104 9.72238 6.33329 10.7881 5.80189 12.0025C5.26984 13.2189 5 14.5636 5 15.9998C5 17.436 5.26984 18.7811 5.80189 19.9975C6.33329 21.2123 7.06104 22.2779 7.96507 23.1652C8.86942 24.0531 9.94783 24.755 11.1704 25.2516C12.3933 25.7483 13.7129 26 15.0929 26C16.6124 26 17.9858 25.748 19.1743 25.251C20.3628 24.7537 21.3979 24.042 22.2507 23.1353L22.2504 23.1349Z" fill="white"/>
<defs>
<linearGradient id="paint0_linear_2716_59192" x1="1.73249" y1="-21.1613" x2="47.5497" y2="-1.90055" gradientUnits="userSpaceOnUse">
<stop stop-color="#6A36FF"/>
<stop offset="1" stop-color="#AC5FE6"/>
</linearGradient>
</defs>
</svg>
